<svg width="57" height="63" viewBox="0 0 57 63" fill="none" xmlns="http://www.w3.org/2000/svg">
<path d="M36.7998 24.4025C34.4784 31.9751 34.7408 39.2099 39.2625 46.0359C39.9488 47.0491 39.9488 47.7068 38.8991 48.4712C36.9411 49.8755 35.0234 51.3154 33.1259 52.773C32.3992 53.324 31.8138 53.3063 31.0265 52.7908C24.466 48.489 19.8231 42.9073 16.6741 36.2947C15.7859 34.4104 15.0794 32.4728 14.2921 30.553C14.2113 30.3397 14.1508 30.1264 14.0499 29.9131C12.1523 25.6291 12.0716 24.367 13.525 19.7808C13.4846 19.8341 11.7083 20.1363 10.2952 22.2694C8.51882 19.1408 11.3247 13.7547 16.775 11.6927C15.8262 10.5373 15.4629 9.27518 16.0079 7.69312C16.4116 7.94199 16.7346 8.11975 17.0576 8.31528C18.8542 9.39962 20.7315 9.54182 22.6694 8.68858C23.6383 8.26195 24.5871 7.76422 25.4955 7.23095C27.0498 6.34215 28.6243 5.75554 30.2191 6.41325C32.2579 4.58233 34.1756 2.85806 36.1134 1.13379C36.7594 2.85806 35.306 4.42234 35.306 6.34215C38.1926 5.9333 39.7268 4.10237 41.705 2.43143C41.9876 3.08914 41.9876 4.33346 41.7858 5.22226C41.4022 6.91098 41.0994 7.60424 42.3914 8.88411C49.4566 14.999 53.7966 22.9627 55.5124 25.3091C56.9255 27.2289 56.9658 29.202 55.1087 30.8197C53.1506 32.5262 50.3448 32.2062 48.4472 30.4641C47.5792 29.6464 41.9876 23.8693 36.7998 24.4025ZM26.2625 12.0305C20.6911 16.3145 17.5623 21.8428 15.7253 28.0288C15.4831 28.8288 15.3216 29.7709 15.584 30.5352C17.3806 36.1525 20.2269 41.3608 24.5063 45.8581C25.9799 47.4046 27.6554 48.7912 29.2501 50.2488C29.351 50.1955 29.4722 50.1421 29.5731 50.0888C28.2812 42.374 27.5545 34.6948 30.9458 27.2111C29.0886 35.4059 30.8246 43.1562 34.3976 50.871C35.4877 50.0177 36.396 49.2533 37.365 48.5423C37.9302 48.1157 37.91 47.7424 37.6072 47.1913C34.5995 41.7697 33.9737 36.0458 35.0032 30.1619C35.3464 28.2244 35.7703 26.3046 36.174 24.3314C34.7206 24.3314 33.3479 24.3314 31.8945 24.3314C32.1367 21.3628 30.865 18.7142 29.5933 16.0478C31.8138 17.7543 32.8029 19.9763 33.2268 22.4472C33.469 22.4827 33.6305 22.5183 33.7718 22.5183C38.5963 22.2872 42.5327 24.047 45.9441 26.8556C47.2563 27.94 48.4069 29.202 49.6382 30.3575C50.4053 31.0863 51.2935 31.5663 52.5652 31.2107C52.1615 29.7531 51.3541 28.8465 50.1025 28.1355C49.5575 27.8333 50.0823 27.0512 50.6072 27.2645C51.0311 27.4422 51.3944 27.8333 51.677 28.1888C52.3836 29.0598 53.0295 29.9664 53.7966 30.9796C54.382 30.4286 54.927 29.8953 55.5528 29.2909C54.8665 29.1309 54.3618 29.0776 53.8975 28.9176C52.9084 28.5621 52.5854 27.7622 53.2112 27.0512C53.3525 26.8912 54.0186 26.429 54.3214 26.7134C54.7252 27.0689 54.5839 27.4778 54.5839 27.6378C54.5839 27.8333 54.4224 28.0111 54.3214 28.2777C54.8059 28.5088 55.2298 28.7043 55.6537 28.8999C56.1988 27.8866 56.0171 27.0867 55.4317 26.2512C53.9783 24.207 52.646 22.0917 51.1724 20.0652C48.3059 16.1189 45.3184 12.2793 41.3619 9.07965C39.3836 7.47981 37.2035 6.751 34.5389 7.28428C34.4783 7.30205 34.3976 7.23095 34.1554 7.14207C34.438 6.0044 34.7408 4.83119 35.0234 3.6402C32.2982 5.22226 31.5917 5.98663 30.8852 8.11974C29.6135 6.96431 28.2206 7.19539 26.8278 7.8531C26.1212 8.19085 25.4955 8.63525 24.7688 8.91966C23.5172 9.43517 22.2657 10.1107 20.9536 10.2529C19.6415 10.3951 18.3899 10.1995 16.775 9.13298C16.9769 10.7328 17.7843 11.6216 18.9753 12.2971C16.8154 12.5993 14.8371 13.3459 13.3232 14.8035C11.8092 16.2611 10.9008 18.2343 10.7393 20.1541C12.7579 18.732 14.5747 18.732 14.9784 18.732C14.0297 21.6828 13.0002 25.0958 14.3728 28.0111C16.5731 21.4873 19.6414 15.6923 26.2625 12.0305ZM41.2811 3.99572C40.1709 4.86674 39.3432 5.50668 38.4349 6.21772C39.1212 6.53769 39.6864 6.80432 40.2718 7.07096C40.5948 6.09328 40.8976 5.18671 41.2811 3.99572Z" fill="#EF7E06"/>
<path d="M45.1572 17.8974C44.5113 16.7775 43.8249 15.6932 43.1184 14.6266C43.078 14.5733 42.8964 14.4488 42.856 14.4488C42.2908 14.4488 41.2411 14.4311 40.8374 14.3955C40.7364 14.3955 40.5548 14.2889 40.5144 14.2355C38.8995 12.9557 37.6277 12.0846 37.5672 12.1202C37.5066 12.1557 38.1728 13.0801 40.6355 16.1909C40.6961 16.262 41.0191 16.4042 41.1402 16.4042C41.8467 16.4575 42.5734 16.4931 43.2799 16.5464C43.3203 16.5464 43.5019 16.6175 43.5423 16.6531C44.0672 17.0619 44.592 17.4708 45.1169 17.8796C45.1169 17.9152 45.1774 17.9152 45.1572 17.8974Z" fill="#EF7E06"/>
<path d="M17.3601 0.081865C14.8772 0.188521 11.2841 0.455162 8.92226 0.721801C5.49059 1.11287 1.29185 1.77058 1.08999 1.94834C1.04961 1.98389 0.968858 2.92602 0.928486 4.0459C0.645878 10.5697 1.15054 17.3779 2.30116 23.2973C2.56358 24.6305 2.86637 26.0703 2.94711 26.3192C3.02786 26.5681 3.45178 28.2746 3.53252 28.5945C3.57289 28.7545 3.67382 29.1634 3.79494 29.5011C3.89587 29.8388 4.01699 30.2299 4.03718 30.3721C4.27941 31.4031 5.85394 35.7582 6.47971 37.1981C6.54027 37.3403 6.74214 37.7847 6.90363 38.1758C7.08531 38.5668 7.26699 39.0112 7.34773 39.1535C7.42848 39.2957 7.52941 39.509 7.56978 39.6156C7.61015 39.7223 7.71108 39.9 7.77164 40.0245C7.8322 40.1489 7.9735 40.4155 8.07443 40.6289C8.47816 41.4999 9.18468 42.6198 9.18468 42.6909C9.18468 42.7975 10.2747 44.8062 10.3959 44.9129C10.4362 44.9484 10.5573 45.1262 11.1024 46.0505C11.385 46.5127 11.9098 47.3304 13.0806 49.0369C13.1412 49.1258 13.2219 49.2324 13.2623 49.268C13.3027 49.3213 13.6458 49.7835 14.0294 50.299C14.4129 50.8145 14.7763 51.2767 14.8167 51.33C14.857 51.3833 14.9983 51.5433 15.0993 51.6677C15.725 52.4677 15.9875 52.7698 16.4921 53.3209C16.7142 53.552 16.9968 53.872 17.1381 54.0319C17.5418 54.4763 18.0061 54.9918 18.3089 55.2585C18.5309 55.4718 19.7623 56.6628 19.7623 56.6983C19.7623 56.8761 23.3554 59.8802 24.5464 60.6979C24.8896 60.9468 25.4952 61.3734 25.5356 61.409C25.6567 61.5156 27.6148 62.6177 27.9377 62.7777C28.402 62.991 28.8663 62.991 29.2498 62.7955C29.7949 62.5466 30.5619 62.1378 30.6023 62.1022C30.6225 62.0845 30.7234 62.0133 30.784 61.9778C31.1474 61.7823 31.8741 61.3201 32.1365 61.1068C32.298 60.9823 32.4595 60.8757 32.4797 60.8757C32.5402 60.8757 32.6411 60.8046 33.4486 60.1646C33.7312 59.9513 34.0138 59.738 34.0946 59.7025C34.4579 59.5069 39.1209 55.454 40.0293 54.5474C41.5433 53.0009 41.6039 52.9298 42.0681 52.4321C42.2498 52.2188 42.4718 52.0055 42.5324 51.9522C42.8756 51.65 44.975 49.0547 45.52 48.3081C46.7312 46.6016 47.7405 44.9129 48.0836 44.1129C48.6287 42.7975 48.7296 42.5664 48.669 42.602C48.6287 42.6198 48.4874 42.7975 48.3662 43.0108C48.2451 43.2064 48.1038 43.3841 48.0836 43.4019C48.0634 43.4197 47.9423 43.5797 47.8212 43.7397C47.7001 43.8996 47.579 44.0774 47.5386 44.1129C47.4781 44.184 46.5293 45.3573 46.2669 45.6595C46.2063 45.7483 46.0448 45.9083 45.9641 46.015C45.8631 46.1216 45.4392 46.5838 45.0153 47.046C44.6116 47.5082 44.1675 47.9703 44.0464 48.1125C43.784 48.3614 43.0169 49.1435 42.8756 49.268C42.815 49.3213 42.5324 49.6057 42.2094 49.9257C41.1597 50.9567 39.6256 52.2899 38.0914 53.4631C37.7483 53.7298 37.4253 53.9964 37.3647 54.0319C37.3042 54.0853 36.8601 54.3875 36.3756 54.743C35.8709 55.0807 35.3865 55.4362 35.2654 55.5074C34.8616 55.7918 33.1054 56.8228 32.6613 57.0361C31.7529 57.4805 30.461 57.996 30.1784 58.0493C29.9362 58.0849 29.7343 58.0315 29.0278 57.7116C28.5635 57.4983 27.9983 57.2138 27.7964 57.0894C27.5946 56.965 27.4129 56.8761 27.3927 56.8761C27.3523 56.8761 26.0806 56.0584 25.5557 55.7029C25.4346 55.614 25.0107 55.294 24.5868 54.9741C23.8803 54.423 21.8819 52.6276 21.7002 52.4321C21.3368 52.041 20.2871 50.8856 19.944 50.5123C19.3787 49.8724 18.6117 48.8769 17.6629 47.5615C17.5216 47.366 17.3601 47.1349 17.2996 47.0638C17.239 46.9749 17.1381 46.8149 17.0573 46.6905C16.916 46.4416 16.7343 46.175 16.6738 46.1216C16.6334 46.0861 16.5527 45.9794 15.9875 45.0373C15.3617 44.0063 14.2313 41.9621 13.666 40.8599C13.1412 39.8467 12.5558 38.478 12.3539 38.0158C11.3648 35.7582 10.0325 32.1675 9.62878 30.6743C9.58841 30.5321 9.42691 29.9277 9.24524 29.3411C8.92226 28.2746 8.45797 26.4436 8.19555 25.3237C8.13499 24.986 8.01387 24.5772 7.99368 24.3994C7.95331 24.2394 7.77164 23.3862 7.61015 22.4974C7.1055 19.831 6.76233 17.2001 6.49991 14.1249C6.37879 12.6139 6.3586 7.06782 6.45953 5.61019L6.52009 4.63251L7.14587 4.38365C9.14431 3.56595 11.4052 2.97935 14.8974 2.37496C18.5915 1.73503 22.871 1.29063 27.5138 1.09509C30.1582 0.988436 30.4207 0.952887 30.6225 0.864007L30.8244 0.775127L30.6225 0.632921C30.3399 0.41961 29.9362 0.348502 28.503 0.224071C25.6365 0.0107589 20.9735 -0.0781187 17.3601 0.081865Z" fill="#EF7E06"/>
</svg>
